<svg xmlns="http://www.w3.org/2000/svg" width="64" height="64" viewBox="0 0 64 64">
  <!-- Dashboard/Home icon -->
  <defs>
    <linearGradient id="dashboardGradient" x1="0%" y1="0%" x2="100%" y2="100%">
      <stop offset="0%" style="stop-color:#10b981;stop-opacity:1" />
      <stop offset="100%" style="stop-color:#059669;stop-opacity:1" />
    </linearGradient>
  </defs>
  
  <!-- House roof -->
  <path d="M 32 8 L 56 28 L 50 28 L 50 54 L 14 54 L 14 28 L 8 28 Z" 
        fill="url(#dashboardGradient)"/>
  
  <!-- House base -->
  <rect x="16" y="30" width="32" height="24" fill="#059669"/>
  
  <!-- Door -->
  <rect x="26" y="38" width="12" height="16" rx="1" fill="white"/>
  <circle cx="35" cy="46" r="1.5" fill="#10b981"/>
  
  <!-- Windows -->
  <rect x="20" y="34" width="6" height="6" rx="1" fill="white" opacity="0.9"/>
  <rect x="38" y="34" width="6" height="6" rx="1" fill="white" opacity="0.9"/>
  
  <!-- Window panes -->
  <line x1="23" y1="34" x2="23" y2="40" stroke="#10b981" stroke-width="0.5"/>
  <line x1="20" y1="37" x2="26" y2="37" stroke="#10b981" stroke-width="0.5"/>
  <line x1="41" y1="34" x2="41" y2="40" stroke="#10b981" stroke-width="0.5"/>
  <line x1="38" y1="37" x2="44" y2="37" stroke="#10b981" stroke-width="0.5"/>
  
  <!-- Chimney -->
  <rect x="40" y="16" width="6" height="12" fill="#059669"/>
  
  <!-- Smoke -->
  <circle cx="42" cy="12" r="1.5" fill="#34d399" opacity="0.5"/>
  <circle cx="44" cy="10" r="1.5" fill="#34d399" opacity="0.4"/>
  <circle cx="46" cy="8" r="1.5" fill="#34d399" opacity="0.3"/>
</svg>
